<?xml version="1.0" encoding="UTF-8"?>
<svg width="120px" height="131px" viewBox="0 0 120 131" version="1.1" xmlns="http://www.w3.org/2000/svg" xmlns:xlink="http://www.w3.org/1999/xlink">
    <title>766A7A04-6ADC-4B92-8000-93A31DC99CC5</title>
    <g id="Anasayfa" stroke="none" stroke-width="1" fill="none" fill-rule="evenodd">
        <g id="Desktop---Anasayfa-1200px-meyvali" transform="translate(-900.000000, -80.000000)">
            <g id="Group" transform="translate(900.000000, 80.000000)">
                <g id="Group-3" transform="translate(0.000000, 29.774638)" fill="#E9CC95">
                    <path d="M114.63523,3.3103973 L3.31552703,3.3103973 C2.44417568,3.3103973 1.73795946,2.60418108 1.73795946,1.73318108 C1.73795946,0.86182973 2.44417568,0.155613514 3.31552703,0.155613514 L114.63523,0.155613514 C115.50623,0.155613514 116.212446,0.86182973 116.212446,1.73318108 C116.212446,2.60418108 115.50623,3.3103973 114.63523,3.3103973 M1.57739189,78.5164514 C0.706040541,78.5164514 -0.000175675676,77.8102351 -0.000175675676,76.9392351 L-0.000175675676,9.37331622 C-0.000175675676,8.50196486 0.706040541,7.7961 1.57739189,7.7961 C2.44839189,7.7961 3.15460811,8.50196486 3.15460811,9.37331622 L3.15460811,76.9392351 C3.15460811,77.8102351 2.44839189,78.5164514 1.57739189,78.5164514 M8.39712162,100.1351 C7.52612162,100.1351 6.81990541,99.4288838 6.81990541,98.5578838 L6.81990541,9.37331622 C6.81990541,8.50196486 7.52612162,7.7961 8.39712162,7.7961 C9.26847297,7.7961 9.97468919,8.50196486 9.97468919,9.37331622 L9.97468919,98.5578838 C9.97468919,99.4288838 9.26847297,100.1351 8.39712162,100.1351" id="Fill-1"></path>
                </g>
                <polygon id="Fill-4" fill="#E9CC95" points="34.0177676 24.4988865 34.3624432 24.2722649 34.6965784 24.0228054 35.0546054 23.7729946 35.3883892 23.5228324 35.7228757 23.2466703 36.0570108 22.9729676 36.4041459 22.6992649 36.7488216 22.4125622 37.0829568 22.1360486 37.4409838 21.8626973 37.7986595 21.5759946 38.1566865 21.3022919 38.5277135 21.0285892 38.9089297 20.752427 39.2904973 20.4920757 39.7089568 20.2394541 40.1035243 19.9762919 40.5458757 19.7264811 40.9850649 19.4998595 41.4400649 19.2974811 41.9298486 19.0817514 42.4294703 18.9159135 42.9322541 18.7237243 43.4687676 18.5817784 44.0397135 18.450373 44.6264703 18.3319676 45.2343081 18.2476432 45.8790378 18.1872108 46.5234162 18.1397784 47.2155784 18.1162378 47.9548216 18.1162378 48.7074162 18.1636703 50.1254703 18.6661027 51.3200649 19.2739405 52.2855784 19.9657514 53.038173 20.7179946 53.5985784 21.5521027 53.9801459 22.4125622 54.1853351 23.2937514 54.2668486 24.1647514 54.2327676 25.0484 54.0880108 25.9092108 53.8382 26.6958865 53.5170649 27.4586703 53.1565784 28.1034 52.7409297 28.6638054 52.3224703 29.1293459 51.8804703 29.4399405 52.1306324 29.1054541 52.3224703 28.7372378 52.4303351 28.3187784 52.4777676 27.8767784 52.4303351 27.3746973 52.2855784 26.9112649 52.0487676 26.4931568 51.7620649 26.1351297 51.4040378 25.8487784 51.0094703 25.6091568 50.5439297 25.4672108 50.0439568 25.4197784 49.5415243 25.4672108 49.0756324 25.6091568 48.6599838 25.8487784 48.2889568 26.1351297 47.9917135 26.4931568 47.7390919 26.9112649 47.5971459 27.3746973 47.5497135 27.8767784 47.5971459 28.3767514 47.7390919 28.8321027 47.9917135 29.2502108 48.2889568 29.6082378 48.6599838 29.9290216 49.0756324 30.1556432 49.5415243 30.3000486 50.0439568 30.3474811 50.1518216 30.3474811 50.2333351 30.3474811 50.3412 30.3235892 50.4255243 30.3000486 50.6753351 30.2761568 50.8780649 30.2631568 51.0702541 30.2396162 51.2357405 30.1921838 51.4040378 30.1556432 51.570227 30.1082108 51.7385243 30.047427 51.9043622 29.9898054 52.7644703 29.5000216 53.5406054 28.8795351 54.2327676 28.1034 54.8167135 27.2088595 55.2931459 26.2194541 55.6508216 25.1566162 55.8799027 24.0463459 55.9614162 22.9121838 55.8799027 21.778373 55.6508216 20.6705622 55.235173 19.6080757 54.6248757 18.6162108 53.8382 17.6981297 52.8119027 16.9111027 51.570227 16.2431838 50.1019297 15.7298595 49.2073892 15.5615622 48.3497405 15.4192649 47.5367135 15.3352919 46.7366865 15.2513189 45.9865514 15.227427 45.2712 15.227427 44.5793892 15.2513189 43.9107676 15.3008595 43.2899297 15.3827243 42.6792811 15.4800486 42.1083351 15.6114541 41.5482811 15.7534 41.0219568 15.9192378 40.519173 16.0878865 40.0430919 16.3036162 39.5775514 16.5059946 39.1250108 16.7428054 38.6960108 16.9718865 38.2775514 17.2216973 37.8829838 17.4715081 37.5014162 17.7216703 37.1303892 17.9978324 36.7727135 18.2711838 36.4146865 18.5343459 36.0805514 18.7845081 35.7464162 19.0582108 35.436173 19.334373 35.1255784 19.5845351 34.8044432 19.8343459 34.4938486 20.0841568 34.1836054 20.323427 33.8628216 20.5500486 33.552227 20.7759676 33.2416324 21.0285892 32.9074973 21.2787514 32.5839027 21.5285622 32.2733081 21.8022649 31.939173 22.078427 31.6050378 22.3521297 31.2972541 22.6152919 30.9395784 22.9121838 30.6050919 23.1886973 30.2449568 23.4725892 29.8633892 23.7491027 29.4948216 24.0228054 29.1136054 24.2965081 28.7186865 24.5726703 28.3005784 24.8224811 27.8821189 25.0722919 27.4425784 25.3224541 26.9770378 25.5248324 26.5216865 25.7644541 26.0220649 25.9429405 25.5087405 26.1351297 24.9957676 26.3009676 24.4220108 26.4457243 23.8616054 26.6006703 23.2537676 26.6958865 22.6434703 26.7798595 21.9987405 26.8508324 21.3304703 26.9112649 20.6386595 26.9112649 19.8990649 26.9112649 19.1468216 26.8747243 17.7287676 26.3617514 16.534173 25.7644541 15.5683081 25.0722919 14.8160649 24.3196973 14.2553081 23.4725892 13.8737405 22.6152919 13.6713622 21.7442919 13.5873892 20.8364 13.6239297 19.9762919 13.779227 19.1291838 14.0290378 18.3319676 14.3396324 17.5797243 14.6976595 16.9219946 15.1157676 16.3612378 15.5317676 15.8956973 15.9737676 15.5854541 15.7236054 15.9192378 15.5317676 16.3036162 15.4239027 16.7428054 15.3894703 17.1742649 15.4239027 17.6872378 15.5683081 18.1397784 15.8079297 18.5343459 16.0918216 18.892373 16.4498486 19.1896162 16.8679568 19.4158865 17.3338486 19.5602919 17.8362811 19.6080757 18.3362541 19.5602919 18.7887946 19.4158865 19.2202541 19.1896162 19.5652811 18.892373 19.8888757 18.5343459 20.1147946 18.1397784 20.2570919 17.6872378 20.3045243 17.1742649 20.2570919 16.6718324 20.1147946 16.2192919 19.8888757 15.7772919 19.5652811 15.4192649 19.2202541 15.1090216 18.7887946 14.8827514 18.3362541 14.7274541 17.8362811 14.6909135 17.7287676 14.6909135 17.6209027 14.6909135 17.5365784 14.7039135 17.4522541 14.7274541 17.2024432 14.7513459 16.9997135 14.7748865 16.7839838 14.7878865 16.6184973 14.8353189 16.4498486 14.8827514 16.2840108 14.9171838 16.1157135 14.9772649 15.9498757 15.0619405 15.0894162 15.5510216 14.3160919 16.1718595 13.6239297 16.9455351 13.037173 17.8530757 12.5610919 18.8315892 12.2034162 19.881427 11.9771459 20.9920486 11.8928216 22.1125081 11.9771459 23.2466703 12.2034162 24.3569405 12.6215243 25.4197784 13.2293622 26.4091838 14.0290378 27.3272649 15.0553351 28.1269405 16.2840108 28.7952108 17.7523081 29.2976432 18.6468486 29.4634811 19.5073081 29.6082378 20.3308757 29.6894 21.0936595 29.7631838 21.8567946 29.7976162 22.5619568 29.7976162 23.2537676 29.7740757 23.9223892 29.7132919 24.5298757 29.6317784 25.1380649 29.5239135 25.6981189 29.4030486 26.2718757 29.2502108 26.7848486 29.0819135 27.298173 28.9030757 27.7767135 28.7108865 28.2397946 28.4979676 28.6716054 28.2716973 29.0897135 28.0190757 29.5053622 27.7928054 29.9108216 27.5429946 30.2818486 27.2692919 30.6630649 27.0166703 31.0210919 26.7433189 31.3787676 26.4692649 31.7129027 26.1931027 32.0470378 25.9429405 32.381173 25.6801297 32.7153081 25.4197784 33.0259027 25.1668054 33.3600378 24.9408865 33.6836324 24.7146162"></polygon>
                <polygon id="Fill-6" fill="#E9CC95" points="83.9328135 24.4988865 83.5747865 24.2722649 83.2406514 24.0228054 82.8829757 23.7729946 82.5488405 23.5228324 82.2143541 23.2466703 81.8805703 22.9729676 81.5464351 22.6992649 81.2123 22.4125622 80.854273 22.1360486 80.4965973 21.8626973 80.1385703 21.5759946 79.7808946 21.3022919 79.4098676 21.0285892 79.0283 20.752427 78.6600838 20.4920757 78.2521649 20.2394541 77.8361649 19.9762919 77.3945162 19.7264811 76.9655162 19.4998595 76.4999757 19.2974811 76.0207324 19.0817514 75.5211108 18.9159135 75.0081378 18.7237243 74.471273 18.5817784 73.9112189 18.450373 73.3135703 18.3319676 72.716273 18.2476432 72.0613541 18.1872108 71.4166243 18.1397784 70.7244622 18.1162378 69.9957595 18.1162378 69.2326243 18.1636703 67.8117595 18.6661027 66.6175162 19.2739405 65.6520027 19.9657514 64.8990568 20.7179946 64.3386514 21.5521027 63.9570838 22.4125622 63.7547054 23.2937514 63.6703811 24.1647514 63.7076243 25.0484 63.8625703 25.9092108 64.1127324 26.6958865 64.423327 27.4586703 64.7806514 28.1034 65.1994622 28.6638054 65.6147595 29.1293459 66.0571108 29.4399405 65.8069486 29.1054541 65.6147595 28.7372378 65.5097054 28.3187784 65.4728135 27.8767784 65.5097054 27.3746973 65.6520027 26.9112649 65.891273 26.4931568 66.1779757 26.1351297 66.5356514 25.8487784 66.9281108 25.6091568 67.3936514 25.4672108 67.8960838 25.4197784 68.3960568 25.4672108 68.8615973 25.6091568 69.2800568 25.8487784 69.6486243 26.1351297 69.948327 26.4931568 70.1981378 26.9112649 70.3428946 27.3746973 70.390327 27.8767784 70.3428946 28.3767514 70.1981378 28.8321027 69.948327 29.2502108 69.6486243 29.6082378 69.2800568 29.9290216 68.8615973 30.1556432 68.3960568 30.3000486 67.8960838 30.3474811 67.7882189 30.3474811 67.7042459 30.3474811 67.6093811 30.3235892 67.5250568 30.3000486 67.2752459 30.2761568 67.0595162 30.2631568 66.8701378 30.2396162 66.7014892 30.1921838 66.5356514 30.1556432 66.3673541 30.1082108 66.2015162 30.047427 66.0335703 29.9898054 65.1755703 29.5000216 64.3994351 28.8795351 63.7076243 28.1034 63.1229757 27.2088595 62.6444351 26.2194541 62.2867595 25.1566162 62.0601378 24.0463459 61.9761649 22.9121838 62.0601378 21.778373 62.2867595 20.6705622 62.7048676 19.6080757 63.3127054 18.6162108 64.1127324 17.6981297 65.1386784 16.9111027 66.3673541 16.2431838 67.8356514 15.7298595 68.7298405 15.5615622 69.5906514 15.4192649 70.4138676 15.3352919 71.2008946 15.2513189 71.9531378 15.227427 72.6688405 15.227427 73.3610027 15.2513189 74.029273 15.3008595 74.6606514 15.3827243 75.2713 15.4800486 75.8313541 15.6114541 76.3921108 15.7534 76.9180838 15.9192378 77.4180568 16.0878865 77.9078405 16.3036162 78.3835703 16.5059946 78.8259216 16.7428054 79.2440297 16.9718865 79.6624892 17.2216973 80.0545973 17.4715081 80.4361649 17.7216703 80.8071919 17.9978324 81.1648676 18.2711838 81.5228946 18.5343459 81.8570297 18.7845081 82.1911649 19.0582108 82.5014081 19.334373 82.8253541 19.5845351 83.1331378 19.8343459 83.4433811 20.0841568 83.7669757 20.323427 84.0775703 20.5500486 84.3881649 20.7759676 84.7089486 21.0285892 85.0430838 21.2787514 85.3536784 21.5285622 85.664273 21.8022649 85.9984081 22.078427 86.3321919 22.3521297 86.653327 22.6152919 87.0004622 22.9121838 87.3454892 23.1886973 87.6926243 23.4725892 88.0741919 23.7491027 88.4452189 24.0228054 88.8267865 24.2965081 89.2213541 24.5726703 89.6370027 24.8224811 90.0688135 25.0722919 90.4974622 25.3224541 90.9633541 25.5248324 91.4288946 25.7644541 91.9288676 25.9429405 92.4313 26.1351297 92.9551649 26.3009676 93.5152189 26.4457243 94.0756243 26.6006703 94.6859216 26.6958865 95.2937595 26.7798595 95.9384892 26.8508324 96.6197595 26.9112649 97.2989216 26.9112649 98.0381649 26.9112649 98.7907595 26.8747243 100.211624 26.3617514 101.403759 25.7644541 102.371381 25.0722919 103.121516 24.3196973 103.684732 23.4725892 104.0663 22.6152919 104.268678 21.7442919 104.350192 20.8364 104.316111 19.9762919 104.171354 19.1291838 103.921543 18.3319676 103.600759 17.5797243 103.252922 16.9219946 102.824273 16.3612378 102.405814 15.8956973 101.976814 15.5854541 102.226976 15.9192378 102.405814 16.3036162 102.513678 16.7428054 102.561111 17.1742649 102.513678 17.6872378 102.371381 18.1397784 102.142651 18.5343459 101.845408 18.892373 101.487732 19.1896162 101.069273 19.4158865 100.616732 19.5602919 100.103759 19.6080757 99.601327 19.5602919 99.1487865 19.4158865 98.7299757 19.1896162 98.3726514 18.892373 98.0620568 18.5343459 97.8252459 18.1397784 97.6804892 17.6872378 97.6330568 17.1742649 97.6804892 16.6718324 97.8252459 16.2192919 98.0620568 15.7772919 98.3726514 15.4192649 98.7299757 15.1090216 99.1487865 14.8827514 99.601327 14.7274541 100.103759 14.6909135 100.211624 14.6909135 100.319489 14.6909135 100.401003 14.7039135 100.484976 14.7274541 100.735138 14.7513459 100.951219 14.7748865 101.153597 14.7878865 101.319084 14.8353189 101.487732 14.8827514 101.65357 14.9171838 101.821868 14.9772649 101.987705 15.0619405 102.847814 15.5510216 103.6243 16.1718595 104.316111 16.9455351 104.900057 17.8530757 105.378949 18.8315892 105.736976 19.881427 105.973435 20.9920486 106.058111 22.1125081 105.973435 23.2466703 105.736976 24.3569405 105.318516 25.4197784 104.710678 26.4091838 103.921543 27.3272649 102.895597 28.1269405 101.65357 28.7952108 100.188084 29.2976432 99.2907324 29.4634811 98.4330838 29.6082378 97.6225162 29.6894 96.8463811 29.7631838 96.0937865 29.7976162 95.3780838 29.7976162 94.6859216 29.7740757 94.0176514 29.7132919 93.4077054 29.6317784 92.7995162 29.5239135 92.2394622 29.4030486 91.6787054 29.2502108 91.1527324 29.0819135 90.6527595 28.9030757 90.163327 28.7108865 89.7104351 28.4979676 89.2687865 28.2716973 88.850327 28.0190757 88.4322189 27.7928054 88.0267595 27.5429946 87.6557324 27.2692919 87.2745162 27.0166703 86.9164892 26.7433189 86.5718135 26.4692649 86.2376784 26.1931027 85.9035432 25.9429405 85.5560568 25.6801297 85.222273 25.4197784 84.911327 25.1668054 84.5775432 24.9408865 84.2669486 24.7146162"></polygon>
                <path d="M17.1889514,48.7709405 C17.1889514,46.3012919 19.1906,44.2992919 21.6602486,44.2992919 L98.9779243,44.2992919 C101.447222,44.2992919 103.449222,46.3012919 103.449222,48.7709405 L103.449222,100.191914 C103.449222,102.661211 101.447222,104.662859 98.9779243,104.662859 L21.6602486,104.662859 C19.1906,104.662859 17.1889514,102.661211 17.1889514,100.191914 L17.1889514,48.7709405 Z" id="Fill-8" fill="#A02E33"></path>
                <polygon id="Fill-10" fill="#E9CC95" points="46.6132568 112.973549 46.8047432 112.847765 46.9902568 112.708981 47.1891216 112.570197 47.3746351 112.431414 47.5601486 112.278224 47.7456622 112.126089 47.9385541 111.973954 48.1300405 111.814792 48.3155541 111.661603 48.5144189 111.509468 48.7129324 111.350305 48.9117973 111.19817 49.1176892 111.046386 49.3295541 110.892846 49.5414189 110.748441 49.7736622 110.608251 49.9929054 110.462089 50.2381486 110.323305 50.4823378 110.197522 50.7349595 110.085089 51.0069054 109.964927 51.284473 109.873224 51.5634459 109.766414 51.8617432 109.687711 52.1786622 109.61463 52.5047162 109.548927 52.8420135 109.502197 53.2000405 109.468468 53.5580676 109.442116 53.9420946 109.429116 54.3528243 109.429116 54.7705811 109.455116 55.5583108 109.734441 56.2216622 110.071738 56.7578243 110.456116 57.1755811 110.873873 57.4868784 111.337305 57.6987432 111.814792 57.8125811 112.304224 57.8579054 112.788035 57.8389324 113.278522 57.7588243 113.756711 57.6200405 114.193441 57.4415541 114.61717 57.2416351 114.974846 57.0104459 115.286143 56.7782027 115.544738 56.5326081 115.717251 56.6713919 115.531386 56.7782027 115.3269 56.8382838 115.094657 56.8642838 114.849414 56.8382838 114.570089 56.7578243 114.313251 56.6264189 114.080657 56.4669054 113.882143 56.2683919 113.722981 56.0491486 113.589819 55.7905541 113.510765 55.5129865 113.484765 55.2340135 113.510765 54.9754189 113.589819 54.7445811 113.722981 54.5383378 113.882143 54.3732027 114.080657 54.2330135 114.313251 54.1539595 114.570089 54.1279595 114.849414 54.1539595 115.126981 54.2330135 115.379603 54.3732027 115.611846 54.5383378 115.810711 54.7445811 115.988846 54.9754189 116.114278 55.2340135 116.194738 55.5129865 116.221089 55.5727162 116.221089 55.6180405 116.221089 55.6781216 116.208089 55.7248514 116.194738 55.8636351 116.181738 55.9760676 116.174359 56.0828784 116.161008 56.1749324 116.135008 56.2683919 116.114278 56.3604459 116.088278 56.4539054 116.0549 56.5459595 116.022576 57.0237973 115.75063 57.4545541 115.405954 57.8389324 114.974846 58.1635811 114.478035 58.4277973 113.928873 58.6266622 113.338603 58.7538514 112.721981 58.7991757 112.092359 58.7538514 111.462738 58.6266622 110.847522 58.3958243 110.257603 58.0567703 109.706684 57.6200405 109.196873 57.0501486 108.760143 56.3604459 108.388765 55.5449595 108.10417 55.0481486 108.010359 54.5720676 107.931305 54.1205811 107.884927 53.676473 107.838197 53.2597703 107.825197 52.8623919 107.825197 52.4780135 107.838197 52.1069865 107.865954 51.7623108 107.911278 51.4232568 107.965035 51.1063378 108.038116 50.7950405 108.11717 50.5027162 108.208873 50.2237432 108.302684 49.9591757 108.422495 49.7005811 108.534927 49.4493649 108.666332 49.2111486 108.793873 48.9789054 108.932305 48.7596622 109.071441 48.5477973 109.209873 48.3415541 109.363414 48.1430405 109.515197 47.944527 109.661359 47.7586622 109.800143 47.5731486 109.951927 47.4009865 110.105468 47.228473 110.2439 47.0499865 110.383035 46.8778243 110.521819 46.7053108 110.65463 46.5271757 110.780414 46.3546622 110.906197 46.1821486 111.046386 45.9966351 111.18517 45.8170946 111.323954 45.6445811 111.475738 45.4590676 111.629278 45.2735541 111.781062 45.1024459 111.927224 44.9035811 112.092359 44.7180676 112.2459 44.5181486 112.403657 44.3062838 112.556846 44.1017973 112.708981 43.8899324 112.861116 43.6706892 113.014305 43.4380946 113.153089 43.2058514 113.291873 42.9620135 113.430657 42.7034189 113.543089 42.4504459 113.676251 42.1728784 113.775332 41.8879324 113.882143 41.6033378 113.974197 41.2843108 114.054305 40.9733649 114.140738 40.6357162 114.193441 40.2966622 114.239819 39.9389865 114.279522 39.5676081 114.313251 39.1835811 114.313251 38.7728514 114.313251 38.3550946 114.292873 37.5673649 114.007576 36.9043649 113.676251 36.3678514 113.291873 35.9500946 112.874116 35.6387973 112.403657 35.4269324 111.927224 35.3145 111.443765 35.2677703 110.939927 35.2881486 110.462089 35.3745811 109.99163 35.5133649 109.548927 35.685527 109.130819 35.8843919 108.765765 36.1166351 108.454819 36.347473 108.195873 36.5927162 108.023711 36.4542838 108.208873 36.347473 108.422495 36.2877432 108.666332 36.2687703 108.905954 36.2877432 109.1909 36.3678514 109.442116 36.5010135 109.661359 36.6587703 109.860224 36.8572838 110.025008 37.0898784 110.150792 37.3481216 110.2309 37.6274459 110.257603 37.9050135 110.2309 38.1562297 110.150792 38.3958514 110.025008 38.5873378 109.860224 38.7668784 109.661359 38.8926622 109.442116 38.9713649 109.1909 38.9980676 108.905954 38.9713649 108.626981 38.8926622 108.375765 38.7668784 108.130522 38.5873378 107.931305 38.3958514 107.759143 38.1562297 107.633711 37.9050135 107.547278 37.6274459 107.5269 37.5673649 107.5269 37.5076351 107.5269 37.4609054 107.534278 37.4141757 107.547278 37.2753919 107.56063 37.1629595 107.57363 37.0431486 107.580657 36.9510946 107.607359 36.8572838 107.633711 36.7652297 107.652332 36.6717703 107.686062 36.5797162 107.732792 36.1018784 108.004386 35.672527 108.349414 35.2881486 108.779116 34.9624459 109.282954 34.6978784 109.826495 34.4990135 110.409386 34.3735811 111.026008 34.3268514 111.648603 34.3735811 112.278224 34.4990135 112.894495 34.7316081 113.484765 35.0689054 114.034278 35.5133649 114.544089 36.0829054 114.987846 36.7652297 115.359224 37.5807162 115.638197 38.077527 115.730251 38.5553649 115.810711 39.012473 115.856035 39.4362027 115.896792 39.8599324 115.915765 40.2516892 115.915765 40.6357162 115.902765 41.0067432 115.869035 41.3443919 115.823711 41.6820405 115.76363 41.9933378 115.696522 42.3116622 115.611846 42.5966081 115.518386 42.8815541 115.418954 43.147527 115.312495 43.4047162 115.194089 43.6443378 115.068305 43.8765811 114.928116 44.1074189 114.802332 44.3322838 114.6639 44.538527 114.511765 44.7503919 114.371576 44.9489054 114.219441 45.1477703 114.067657 45.3332838 113.914468 45.5187973 113.775332 45.7046622 113.62917 45.8898243 113.484765 46.0623378 113.344576 46.2478514 113.218792 46.4277432 113.093359"></polygon>
                <polygon id="Fill-12" fill="#E9CC95" points="74.3320676 112.973549 74.1335541 112.847765 73.9476892 112.708981 73.7491757 112.570197 73.5633108 112.431414 73.3777973 112.278224 73.1926351 112.126089 73.0071216 111.973954 72.8212568 111.814792 72.6227432 111.661603 72.4238784 111.509468 72.2253649 111.350305 72.0265 111.19817 71.8206081 111.046386 71.6083919 110.892846 71.4039054 110.748441 71.1772838 110.608251 70.9464459 110.462089 70.7012027 110.323305 70.4629865 110.197522 70.2043919 110.085089 69.9384189 109.964927 69.6608514 109.873224 69.3762568 109.766414 69.0779595 109.687711 68.7666622 109.61463 68.4349865 109.548927 68.1033108 109.502197 67.7393108 109.468468 67.3816351 109.442116 66.9972568 109.429116 66.5928514 109.429116 66.1691216 109.455116 65.3799865 109.734441 64.7166351 110.071738 64.1801216 110.456116 63.7623649 110.873873 63.4510676 111.337305 63.2395541 111.814792 63.1267703 112.304224 63.0803919 112.788035 63.1004189 113.278522 63.1865 113.756711 63.3256351 114.193441 63.4977973 114.61717 63.6963108 114.974846 63.9289054 115.286143 64.1597432 115.544738 64.4053378 115.717251 64.2665541 115.531386 64.1597432 115.3269 64.1014189 115.094657 64.0806892 114.849414 64.1014189 114.570089 64.1801216 114.313251 64.3132838 114.080657 64.4724459 113.882143 64.6713108 113.722981 64.8887973 113.589819 65.1473919 113.510765 65.4263649 113.484765 65.7039324 113.510765 65.9628784 113.589819 66.1951216 113.722981 66.3996081 113.882143 66.5661486 114.080657 66.7049324 114.313251 66.7853919 114.570089 66.8117432 114.849414 66.7853919 115.126981 66.7049324 115.379603 66.5661486 115.611846 66.3996081 115.810711 66.1951216 115.988846 65.9628784 116.114278 65.7039324 116.194738 65.4263649 116.221089 65.3666351 116.221089 65.3202568 116.221089 65.2672027 116.208089 65.220473 116.194738 65.0816892 116.181738 64.9618784 116.174359 64.8568243 116.161008 64.7633649 116.135008 64.6713108 116.114278 64.5775 116.088278 64.4857973 116.0549 64.3919865 116.022576 63.9159054 115.75063 63.4847973 115.405954 63.1004189 114.974846 62.7761216 114.478035 62.5105 113.928873 62.3112838 113.338603 62.1858514 112.721981 62.1391216 112.092359 62.1858514 111.462738 62.3112838 110.847522 62.543527 110.257603 62.8811757 109.706684 63.3256351 109.196873 63.895527 108.760143 64.5775 108.388765 65.3929865 108.10417 65.8897973 108.010359 66.3676351 107.931305 66.8250946 107.884927 67.2618243 107.838197 67.6795811 107.825197 68.0769595 107.825197 68.4613378 107.838197 68.8327162 107.865954 69.1833649 107.911278 69.5224189 107.965035 69.8333649 108.038116 70.1446622 108.11717 70.4366351 108.208873 70.7142027 108.302684 70.9861486 108.422495 71.2503649 108.534927 71.4963108 108.666332 71.7285541 108.793873 71.9607973 108.932305 72.1782838 109.071441 72.3905 109.209873 72.5963919 109.363414 72.7949054 109.515197 72.9934189 109.661359 73.1792838 109.800143 73.3647973 109.951927 73.5369595 110.105468 73.7168514 110.2439 73.8876081 110.383035 74.060473 110.521819 74.2400135 110.65463 74.412527 110.780414 74.5850405 110.906197 74.7631757 111.046386 74.9486892 111.18517 75.1212027 111.323954 75.2933649 111.475738 75.4792297 111.629278 75.6647432 111.781062 75.8428784 111.927224 76.0357703 112.092359 76.2272568 112.2459 76.4197973 112.403657 76.6320135 112.556846 76.8379054 112.708981 77.0497703 112.861116 77.2690135 113.014305 77.4998514 113.153089 77.739473 113.291873 77.9776892 113.430657 78.2359324 113.543089 78.4948784 113.676251 78.7724459 113.775332 79.0517703 113.882143 79.3423378 113.974197 79.6536351 114.054305 79.9645811 114.140738 80.3036351 114.193441 80.6412838 114.239819 80.9993108 114.279522 81.3777162 114.313251 81.7547162 114.313251 82.1650946 114.313251 82.5828514 114.292873 83.3719865 114.007576 84.0339324 113.676251 84.5718514 113.291873 84.9878514 112.874116 85.3009054 112.403657 85.5124189 111.927224 85.6252027 111.443765 85.670527 110.939927 85.6515541 110.462089 85.5707432 109.99163 85.4323108 109.548927 85.2538243 109.130819 85.0609324 108.765765 84.8227162 108.454819 84.590473 108.195873 84.3526081 108.023711 84.4913919 108.208873 84.590473 108.422495 84.6505541 108.666332 84.6765541 108.905954 84.6505541 109.1909 84.5718514 109.442116 84.4443108 109.661359 84.279527 109.860224 84.0806622 110.025008 83.8484189 110.150792 83.5972027 110.2309 83.3122568 110.257603 83.0332838 110.2309 82.7817162 110.150792 82.549473 110.025008 82.3506081 109.860224 82.1780946 109.661359 82.0466892 109.442116 81.9665811 109.1909 81.9398784 108.905954 81.9665811 108.626981 82.0466892 108.375765 82.1780946 108.130522 82.3506081 107.931305 82.549473 107.759143 82.7817162 107.633711 83.0332838 107.547278 83.3122568 107.5269 83.3719865 107.5269 83.4317162 107.5269 83.4770405 107.534278 83.5237703 107.547278 83.6629054 107.56063 83.7823649 107.57363 83.8951486 107.580657 83.9868514 107.607359 84.0806622 107.633711 84.1727162 107.652332 84.2661757 107.686062 84.3582297 107.732792 84.8360676 108.004386 85.2671757 108.349414 85.6515541 108.779116 85.9758514 109.282954 86.241473 109.826495 86.4403378 110.409386 86.5720946 111.026008 86.6188243 111.648603 86.5720946 112.278224 86.4403378 112.894495 86.2080946 113.484765 85.8707973 114.034278 85.4323108 114.544089 84.8624189 114.987846 84.1727162 115.359224 83.3586351 115.638197 82.8604189 115.730251 82.3843378 115.810711 81.9346081 115.856035 81.5031486 115.896792 81.0853919 115.915765 80.6880135 115.915765 80.3036351 115.902765 79.9322568 115.869035 79.5939054 115.823711 79.2562568 115.76363 78.9449595 115.696522 78.6336622 115.611846 78.3413378 115.518386 78.0637703 115.418954 77.7921757 115.312495 77.5406081 115.194089 77.2953649 115.068305 77.0627703 114.928116 76.830527 114.802332 76.6056622 114.6639 76.3997703 114.511765 76.1875541 114.371576 75.9890405 114.219441 75.7975541 114.067657 75.6120405 113.914468 75.426527 113.775332 75.2332838 113.62917 75.0481216 113.484765 74.8756081 113.344576 74.6900946 113.218792 74.5175811 113.093359"></polygon>
                <path d="M19.1138297,71.8139676 L19.1053973,71.0838595 C19.3190189,71.0838595 19.5080459,71.0778865 19.6724784,71.0662919 C19.8372622,71.0550486 19.9799108,71.0388865 20.1014784,71.0185081 C20.2226946,70.9984811 20.3119378,70.9531568 20.3699108,70.8835892 C20.4563432,70.7964541 20.5227486,70.5016703 20.569127,69.9992378 C20.6151541,69.4971568 20.647127,69.0822108 20.6643432,68.7536973 C20.6815595,68.4255351 20.6903432,68.0295622 20.6903432,67.5650757 L20.7437486,63.3228595 L20.7437486,62.9486703 C20.7437486,62.3910757 20.7265324,61.9062108 20.6917486,61.4937243 C20.6569649,61.0815892 20.6077757,60.8057784 20.5441811,60.6662919 C20.4921811,60.5331297 20.3681541,60.4372108 20.1717486,60.3788865 C20.0849649,60.3560486 19.9651541,60.3353189 19.8119649,60.3181027 C19.6584243,60.3005351 19.4894243,60.2917514 19.3046135,60.2917514 L19.1053973,60.2917514 L19.1053973,59.5795622 L20.2363973,59.6329676 L21.3241811,59.6329676 L22.3856135,59.6329676 C22.5423162,59.6329676 22.6698568,59.6294541 22.7682351,59.622427 C23.1512081,59.5939676 23.3542892,59.5795622 23.3774784,59.5795622 C23.8472351,60.6539946 24.2678027,61.6036973 24.6391811,62.4286703 C25.0685324,63.3871568 25.4455324,64.2086162 25.7701811,64.8944541 C26.1243432,65.6495081 26.4461811,66.3146162 26.7360459,66.889427 C27.0262622,67.4645892 27.2669378,67.9174811 27.4584243,68.2488054 C27.7542622,67.720373 28.0732892,67.1248324 28.4155054,66.4628865 C28.7577216,65.8005892 29.097127,65.1122919 29.4337216,64.3976432 C29.6192351,64.0027243 29.8514784,63.5034541 30.1301,62.8991297 C30.3500459,62.4111027 30.5879108,61.8770486 30.8429919,61.2955622 C31.1739649,60.5348865 31.4202622,59.9632378 31.5829378,59.5795622 L32.5660189,59.6329676 L33.5666676,59.6329676 L34.5761,59.6329676 C34.7271811,59.6329676 34.8487486,59.6294541 34.9415054,59.622427 C35.3185054,59.5939676 35.5243973,59.5795622 35.5595324,59.5795622 L35.5679649,60.2917514 L35.4109108,60.2917514 L35.1751541,60.2917514 C34.7447486,60.2917514 34.4506676,60.4045351 34.2939649,60.6304541 C34.154127,60.8507514 34.0842081,61.4898595 34.0842081,62.5491838 L34.0842081,62.8355351 L34.0842081,69.6422649 C34.0842081,70.2908595 34.1523703,70.6931568 34.2890459,70.8495081 C34.426073,71.0055081 34.7096135,71.0838595 35.1403703,71.0838595 L35.3237757,71.0838595 L35.5331811,71.0838595 L35.5268568,71.8139676 L34.2384514,71.7781297 L32.6626405,71.7781297 L31.9750459,71.7781297 L31.3046676,71.7781297 C31.1595595,71.7781297 30.9245054,71.7844541 30.5995054,71.7960486 C30.2745054,71.8079946 30.1090189,71.8139676 30.1030459,71.8139676 L30.0942622,71.0838595 L30.4860189,71.0838595 C30.9557757,71.0838595 31.2603973,71.0142919 31.3995324,70.8751568 C31.5386676,70.7360216 31.6085865,70.3129946 31.6085865,69.605373 L31.6085865,62.0727514 C31.2491541,62.7975892 30.7793973,63.7458865 30.1996676,64.9176432 C30.072127,65.1786973 29.7095324,65.9182919 29.1125865,67.136427 C28.7531541,67.8788324 28.4952622,68.409373 28.3385595,68.7284 C28.0546676,69.3316703 27.7879919,69.917373 27.5385324,70.4858595 C27.3414243,70.9268054 27.1327216,71.4109676 26.9124243,71.9383459 L26.2863162,71.9383459 C25.7238027,70.6436162 25.0948838,69.2354 24.3992081,67.7140486 C24.0745595,66.9997514 23.6775324,66.1375351 23.2077757,65.1270486 C22.7671811,64.1805081 22.2658027,63.1148595 21.7032892,61.9301027 L21.6165054,61.9301027 L21.7053973,69.1798865 L21.7053973,69.2845892 C21.7053973,70.4841027 22.0265324,71.0838595 22.6681,71.0838595 L22.9217757,71.0838595 L23.0971,71.0838595 L23.0971,71.8139676 L22.1055865,71.7781297 L21.1056405,71.7781297 L20.3878297,71.7781297 L19.8706405,71.7781297 L19.5575865,71.7781297 C19.4472622,71.7781297 19.2993432,71.790427 19.1138297,71.8139676" id="Fill-14" fill="#E9CC95"></path>
                <path d="M37.1276135,71.8139676 L37.1276135,71.3877784 C37.3166405,71.3185622 37.4789649,71.2430216 37.6149378,71.1622108 C37.7505595,71.0806973 37.8777486,70.9823189 37.9958027,70.866373 L38.0492081,70.1359135 L38.0492081,69.5358054 L38.0492081,61.9445081 C38.0492081,61.1676703 37.9736676,60.7070486 37.8229378,60.5619405 C37.7533703,60.4920216 37.6100189,60.4326432 37.3925324,60.3838054 C37.1753973,60.3342649 36.9073162,60.3096703 36.5886405,60.3096703 L36.597073,59.5795622 L39.0498568,59.6329676 L40.7978297,59.6329676 L42.3283162,59.6329676 L45.5807757,59.5795622 L45.7982622,59.8441297 L45.7026946,61.0647243 L45.6415595,62.2688054 L44.9810189,62.2688054 C44.9810189,62.1532108 44.9764514,62.0330486 44.9676676,61.9090216 C44.9592351,61.7846432 44.943073,61.6500757 44.9195324,61.5056703 C44.9195324,61.3711027 44.905127,61.2396973 44.8759649,61.1111027 C44.8468027,60.9825081 44.8264243,60.8918595 44.8148297,60.8395081 C44.6402081,60.7400757 44.3183703,60.6684 43.8496676,60.6244811 C43.3809649,60.5809135 42.7506405,60.5591297 41.9586946,60.5591297 L41.3385595,60.5591297 L40.6745054,60.5591297 L40.5961541,61.4389135 L40.5961541,62.4332378 L40.5961541,64.9935351 L41.3617486,64.9935351 C41.6228027,64.9935351 41.8842081,64.9893189 42.1449108,64.9812378 C42.4059649,64.9728054 42.6786135,64.9605081 42.9632081,64.9443459 C43.1023432,64.9443459 43.227073,64.9313459 43.3370459,64.9053459 C43.4473703,64.8793459 43.5432892,64.8487784 43.6244514,64.8136432 C43.7579649,64.7619946 43.8595054,64.6428865 43.929073,64.4577243 C43.9578838,64.3705892 43.9828297,64.2384811 44.0028568,64.0621027 C44.0232351,63.885373 44.0334243,63.6865081 44.0334243,63.4662108 L44.7111811,63.4577784 L44.7111811,63.5705622 L44.6746405,65.9706432 L44.6746405,66.8746703 L44.6746405,67.1360757 L44.6746405,67.4139946 L44.0334243,67.4139946 C44.0334243,67.1936973 44.0232351,67.0138054 44.0032081,66.8746703 C43.9828297,66.7355351 43.9469919,66.5992108 43.8949919,66.4660486 C43.8257757,66.2689405 43.7189649,66.1357784 43.5745595,66.0662108 C43.4941,66.031427 43.3756946,65.9980486 43.2196946,65.9660757 C43.0640459,65.9344541 42.8964514,65.9182919 42.7176135,65.9182919 C42.5443973,65.9052919 42.2457486,65.8929946 41.8213162,65.8821027 C41.3972351,65.8715622 40.9945865,65.8659405 40.6137216,65.8659405 L40.5961541,70.7455081 L41.3961811,70.7455081 C41.6575865,70.7455081 42.0314243,70.7367243 42.5187486,70.7188054 C43.0057216,70.7008865 43.3567216,70.6921027 43.5713973,70.6921027 C43.8436946,70.6921027 44.0829649,70.6762919 44.2888568,70.6439676 C44.4947486,70.6116432 44.6542622,70.5768595 44.7673973,70.5389135 C44.8801811,70.5013189 44.9775054,70.3642919 45.0586676,70.1281838 C45.1401811,69.8920757 45.2325865,69.4332108 45.3369378,68.7508865 L46.0329649,68.7529946 L45.8938297,70.3973189 L45.8330459,71.7440486 L45.0755324,71.8139676 L44.5706405,71.8139676 L42.3883973,71.7791838 L39.7623973,71.7444 C39.6348568,71.7444 39.4391541,71.7475622 39.1752892,71.7528324 C38.9114243,71.7588054 38.7101,71.7619676 38.5709649,71.7619676 L37.1276135,71.8139676 Z" id="Fill-16" fill="#E9CC95"></path>
                <path d="M50.3619649,71.8139676 L50.3619649,71.0659405 C51.0312892,71.0659405 51.4599378,70.996373 51.6479108,70.8572378 C51.8355324,70.7181027 51.9289919,70.3730757 51.9289919,69.8221568 L51.9289919,67.4305081 C51.9289919,66.9319405 51.7961811,66.4534 51.5298568,65.9952378 L51.469073,65.8912378 C50.7452892,64.5575081 50.0808838,63.4672649 49.4758568,62.6208595 C48.8708297,61.7744541 48.3107757,61.1451838 47.7953432,60.7334 L47.0311541,60.6114811 L47.0311541,60.0205081 C47.6396946,59.9389946 48.2398027,59.8262108 48.831127,59.6811027 L49.7787216,59.4548324 C50.1609919,59.4548324 50.6887216,59.9467243 51.3608568,60.9298054 C52.0329919,61.9135892 52.8474243,63.3882108 53.8038027,65.3529676 C54.4766405,64.2862649 55.0799108,63.2806973 55.6136135,62.3355622 C56.124127,61.4311838 56.5995054,60.5211838 57.0404514,59.6055622 L57.3099378,59.6139946 L57.7712622,59.6139946 L58.2758027,59.6139946 L58.4061541,59.6139946 L58.5105054,59.6139946 C58.5568838,59.6024 58.5888568,59.5971297 58.6064243,59.5971297 L58.5368568,60.0577514 C57.6381,61.1648595 56.8451,62.2389405 56.1582081,63.2792919 C55.4709649,64.3199946 54.9590459,65.199427 54.6228027,65.9182919 C54.5532351,66.0634 54.5026405,66.2288865 54.4706676,66.4140486 C54.4386946,66.5995622 54.4228838,66.837427 54.4228838,67.1269405 L54.4228838,67.7182649 L54.4228838,69.6229405 C54.4228838,70.3298595 54.5068568,70.7472649 54.6751541,70.8748054 C54.8434514,71.0019946 55.2699919,71.0659405 55.9544243,71.0659405 L55.9544243,71.8139676 L54.8153432,71.7605622 L53.1450189,71.7605622 L52.2448568,71.7605622 L51.2923432,71.7605622 C51.1419649,71.7605622 50.9824514,71.7665351 50.8141541,71.7781297 C50.6462081,71.790427 50.495127,71.8020216 50.3619649,71.8139676" id="Fill-18" fill="#E9CC95"></path>
                <path d="M66.2184162,71.920673 L64.9314162,71.920673 L62.3134973,65.5801865 C61.9828757,64.7685649 61.7509838,64.2060514 61.6174703,63.8926459 C61.3339297,63.2145378 61.1568486,62.7911595 61.0872811,62.6228622 C60.9541189,62.3041865 60.8290378,62.0171324 60.7134432,61.7620514 C60.4348216,61.1239973 60.2482541,60.7498081 60.1523351,60.6398351 C60.0567676,60.5295108 59.9134162,60.4483486 59.7219297,60.3963486 C59.6175784,60.3671865 59.5030378,60.3425919 59.3783081,60.3222135 C59.2539297,60.3021865 59.1190108,60.2916459 58.9739027,60.2916459 L58.9651189,59.6054568 L60.2180378,59.6328622 L61.801227,59.6328622 L62.8798757,59.6328622 L64.5762,59.5794568 L64.5762,60.2916459 C64.0365243,60.2916459 63.6725243,60.3267811 63.4838486,60.3963486 C63.295173,60.4655649 63.2006595,60.5906459 63.2006595,60.7701865 C63.2006595,60.8689162 63.2122541,60.9620243 63.2354432,61.0488081 C63.2586324,61.1359432 63.2776054,61.2023486 63.2920108,61.248727 C63.3064162,61.2954568 63.3310108,61.3562405 63.3661459,61.4314297 L66.3575514,68.9647541 L68.6360649,63.1973216 C68.8619838,62.6291865 69.0373081,62.1302676 69.1623892,61.7012676 C69.2867676,61.2719162 69.3493081,60.961673 69.3493081,60.7701865 C69.3493081,60.5966189 69.2677946,60.4747 69.1047676,60.4051324 C69.0229027,60.3759703 68.8816595,60.3496189 68.6806865,60.3267811 C68.4797135,60.3035919 68.2277946,60.2916459 67.9245784,60.2916459 L67.9245784,59.5970243 L69.0657676,59.6328622 L69.8584162,59.6328622 L70.965173,59.6328622 C71.1159027,59.6328622 71.3151189,59.6240784 71.5617676,59.6061595 C71.8087676,59.5882405 71.9552811,59.5794568 72.0016595,59.5794568 L72.0016595,60.2916459 C71.3755514,60.2916459 70.9029838,60.6370243 70.5843081,61.3270784 C70.2076595,62.144673 69.6219568,63.5128351 68.8275514,65.4322676 C68.6416865,65.8844568 68.3665784,66.5601054 68.001173,67.4592135 C67.6649297,68.2824297 67.3750649,69.0012946 67.1315784,69.6158081 C66.8589297,70.3058622 66.5546595,71.0742676 66.2184162,71.920673" id="Fill-20" fill="#E9CC95"></path>
                <path d="M76.5609703,59.4906 L77.7611865,59.4906 L80.4311054,65.8310865 L80.8741595,66.8661676 C81.9008081,69.3017351 82.4893216,70.6119243 82.6400514,70.7977892 C82.7271865,70.9021405 82.8561324,70.9815459 83.0268892,71.0367081 C83.1983486,71.0922216 83.4140784,71.119627 83.6747811,71.119627 L83.6663486,71.8138973 L82.4401324,71.7784108 L80.9788622,71.7784108 L79.9441324,71.7784108 C79.7930514,71.7784108 79.4989703,71.7843838 79.0611865,71.7959784 C78.6237541,71.8082757 78.3381054,71.8138973 78.2049432,71.8138973 L78.2049432,71.119627 L78.343727,71.119627 C78.7379432,71.119627 79.0453757,71.0844919 79.265673,71.014573 C79.4859703,70.9446541 79.5962946,70.8480324 79.5962946,70.7257622 C79.5962946,70.5096811 79.5407811,70.273573 79.4308081,70.0170865 L79.4135919,69.9731676 L78.4744297,67.5755459 L77.6744027,67.5755459 L76.4046189,67.5755459 L75.1780514,67.5755459 L74.430727,67.5755459 L73.7347,69.4218973 C73.7118622,69.4921676 73.6651324,69.6348162 73.5955649,69.8505459 C73.5667541,69.9440054 73.5375919,70.0374649 73.5084297,70.130573 C73.4564297,70.3698432 73.4304297,70.5448162 73.4304297,70.6554919 C73.4304297,70.8132486 73.4968351,70.9270865 73.6296459,70.9970054 C73.7051865,71.0261676 73.8425649,71.0539243 74.0421324,71.0799243 C74.2417,71.106627 74.4834297,71.119627 74.7673216,71.119627 L74.7673216,71.8138973 L73.7568351,71.7784108 L72.9206189,71.7784108 L72.3584568,71.7784108 L71.8142135,71.7784108 C71.6979162,71.7784108 71.5008081,71.7843838 71.2218351,71.7959784 C70.9432135,71.8082757 70.7949432,71.8138973 70.777727,71.8138973 L70.777727,71.119627 C71.3982135,71.119627 71.8648081,70.7858432 72.1775108,70.1189784 L72.2214297,70.0321946 C72.3141865,69.8234919 72.4589432,69.4900595 72.6560514,69.0318973 C72.7951865,68.7072486 72.9894838,68.2494378 73.2389432,67.6577622 C73.6911324,66.5907081 73.9374297,66.0053568 73.9778351,65.9006541 C74.3376189,65.0250865 74.7522135,64.007573 75.2216189,62.8481135 C75.6910243,61.6883027 76.1375919,60.5688973 76.5609703,59.4906 L76.5609703,59.4906 Z M74.7848892,66.6764378 L75.5680514,66.6852216 L76.3856459,66.6852216 L77.2464568,66.6852216 L78.1511865,66.6852216 L76.4032135,62.3358432 L74.7848892,66.6764378 Z" id="Fill-22" fill="#E9CC95"></path>
                <path d="M85.3299973,71.8139676 L85.3299973,71.3702108 C85.5214838,71.283427 85.6869703,71.1966432 85.8257541,71.1098595 C85.9012946,71.0631297 85.9691054,71.0181568 86.0298892,70.9749405 C86.0910243,70.931373 86.1532135,70.8835892 86.2168081,70.8315892 L86.312727,69.9792108 L86.3475108,69.3011027 L86.3475108,61.8577243 C86.3475108,61.1272649 86.2691595,60.6922919 86.1128081,60.5531568 C86.0312946,60.4776162 85.8865378,60.4182378 85.6778351,60.3746703 C85.4691324,60.3314541 85.2056189,60.3096703 84.8865919,60.3096703 L84.8865919,59.5795622 L86.2958622,59.6329676 L87.6267811,59.6329676 L88.9401324,59.6329676 L90.4973216,59.6055622 L90.4973216,60.3096703 L90.3754027,60.3096703 C89.7538622,60.3096703 89.3473486,60.4055892 89.1558622,60.5970757 C88.9815919,60.7829405 88.8944568,61.3581027 88.8944568,62.3218595 L88.8944568,62.4525622 L88.8944568,70.7107243 L89.5033486,70.763427 L90.1385919,70.763427 C91.0369973,70.763427 91.7347811,70.737427 92.2305378,70.6850757 C92.7266459,70.6330757 93.0730784,70.5403189 93.2701865,70.4071568 L93.4788892,69.5814811 L93.7051595,68.6085892 L94.3924027,68.6085892 C94.3572676,68.8397784 94.3242405,69.0916973 94.2922676,69.3636432 C94.2602946,69.6362919 94.2269162,69.931427 94.1924838,70.2497514 C94.1924838,70.4233189 94.1805378,70.6780486 94.1573486,71.0139405 C94.1345108,71.3494811 94.1225649,71.5985892 94.1225649,71.7605622 L93.0962676,71.8139676 L92.0963216,71.8139676 L90.2436459,71.7781297 L88.3565378,71.7426432 L85.8257541,71.8139676 L85.5604838,71.8139676 L85.3299973,71.8139676 Z" id="Fill-24" fill="#E9CC95"></path>
                <path d="M95.6502757,71.8139676 L95.6502757,71.0838595 L95.7894108,71.0838595 C96.3631676,71.0838595 96.7327892,71.0128865 96.898627,70.8702378 C97.0634108,70.7279405 97.1463297,70.3288054 97.1463297,69.6728324 L97.1463297,69.3158595 L97.1463297,61.6683459 C97.1463297,61.0411838 97.0634108,60.6546973 96.898627,60.5095892 C96.7327892,60.3644811 96.3867081,60.2917514 95.8589784,60.2917514 L95.6502757,60.2917514 L95.6502757,59.5795622 L96.7373568,59.6329676 L97.8760865,59.6329676 L99.4933568,59.6329676 C99.7256,59.6329676 100.039708,59.6266432 100.436735,59.6146973 C100.833762,59.6027514 101.075843,59.5971297 101.162627,59.5971297 L101.171411,60.2917514 L100.901573,60.2917514 C100.385789,60.2917514 100.049546,60.3704541 99.8928432,60.5271568 C99.7477351,60.6898324 99.6753568,61.1687243 99.6753568,61.9641838 L99.6753568,62.0773189 L99.6753568,69.6032649 C99.6753568,70.294373 99.7452757,70.7181027 99.8854649,70.8748054 C100.025303,71.0142919 100.360492,71.0838595 100.891384,71.0838595 L101.180195,71.0838595 L101.171411,71.8139676 L99.7259514,71.7781297 L98.3584919,71.7781297 L97.7225459,71.7781297 L97.0437351,71.7781297 C96.8926541,71.7781297 96.6326541,71.7844541 96.2640865,71.7960486 C95.8951676,71.8079946 95.6906811,71.8139676 95.6502757,71.8139676" id="Fill-26" fill="#E9CC95"></path>
                <path d="M26.4592514,94.3844973 L26.4592514,93.8848757 C27.0354676,93.8848757 27.4005216,93.8290108 27.5547649,93.7169297 C27.7086568,93.6044973 27.7856027,93.3104162 27.7856027,92.8339838 L27.7856027,84.148227 C27.7856027,83.5822 27.7209541,83.2431459 27.5913054,83.1310649 C27.4620081,83.0186324 27.0843054,82.9627676 26.4592514,82.9627676 L26.4592514,82.4835243 C26.9950622,82.3935784 27.4714946,82.2987135 27.8889,82.1975243 C28.3684946,82.0798216 28.7746568,81.9564973 29.1077378,81.8275514 L29.3705486,81.9452541 L29.3533324,82.8784432 L29.3533324,84.2743622 L29.3533324,92.5732811 C29.3533324,93.1786595 29.4200892,93.5486324 29.5536027,93.6832 C29.6867649,93.8177676 30.000873,93.8848757 30.4955757,93.8848757 L30.6456027,93.8848757 L30.6456027,94.3844973 L29.6776297,94.3500649 L28.5670081,94.3500649 L27.8513054,94.3500649 L27.1106568,94.3500649 L26.7937378,94.3500649 C26.7037919,94.3500649 26.5924135,94.3616595 26.4592514,94.3844973" id="Fill-28" fill="#E9CC95"></path>
                <path d="M31.4754595,90.4222027 C31.4754595,89.1218514 31.8594865,88.0878243 32.6275405,87.3201216 C33.3955946,86.5520676 34.4359459,86.1683919 35.7478919,86.1683919 C36.9421351,86.1683919 37.8921892,86.5299324 38.5987568,87.2526622 C39.304973,87.9757432 39.6584324,88.9510946 39.6584324,90.1787162 C39.6584324,91.4955811 39.2533243,92.5661486 38.4431081,93.3897162 C37.6328919,94.2136351 36.5774324,94.6257703 35.2767297,94.6257703 C34.1162162,94.6257703 33.1925135,94.2459595 32.5056216,93.4866892 C31.8187297,92.7274189 31.4754595,91.7056892 31.4754595,90.4222027 M33.025973,89.7992568 C33.025973,91.0837973 33.2712162,92.1090405 33.7620541,92.8742838 C34.2525405,93.6398784 34.9102703,94.0228514 35.7348919,94.0228514 C36.5029459,94.0228514 37.0847838,93.7533649 37.4800541,93.2150946 C37.8756757,92.6768243 38.0734865,91.8827703 38.0734865,90.8339865 C38.0734865,89.5719324 37.8447568,88.5733919 37.388,87.8387162 C36.9308919,87.1040405 36.3097027,86.7368784 35.5240811,86.7368784 C34.7279189,86.7368784 34.1123514,87.0003919 33.6777297,87.5277703 C33.2431081,88.0547973 33.025973,88.8119595 33.025973,89.7992568" id="Fill-30" fill="#E9CC95"></path>
                <path d="M43.4346162,92.6915811 L43.4346162,92.7843378 C43.4346162,93.3219054 43.5048865,93.6398784 43.6457784,93.7382568 C43.7866703,93.8359324 44.1584,93.8847703 44.7609676,93.8847703 L44.7609676,94.3843919 L43.2705351,94.315527 L42.5882108,94.315527 L41.6364,94.315527 C41.5018324,94.315527 41.3514541,94.3207973 41.1859676,94.3302838 C41.0201297,94.3401216 40.8223189,94.3583919 40.5921838,94.3843919 L40.5921838,93.8847703 C41.1968595,93.8847703 41.5689405,93.8289054 41.7087784,93.7168243 C41.8486162,93.6047432 41.9185351,93.2516351 41.9185351,92.6575 L41.9185351,83.9299324 C41.9185351,83.4981216 41.8739135,83.2289865 41.7843189,83.122527 C41.694373,83.0160676 41.4902378,82.9630135 41.1708595,82.9630135 L40.8096703,82.9710946 L40.5577514,82.979527 L40.5577514,82.5002838 C41.0398054,82.4275541 41.4856703,82.3379595 41.8949946,82.2315 C42.3043189,82.1246892 42.7417514,81.9901216 43.2072919,81.8274459 L43.4346162,81.8780405 L43.4346162,89.7166892 C43.5635622,89.6773378 43.7796432,89.5455811 44.0825081,89.3210676 C44.385373,89.0972568 44.7131838,88.8168784 45.0666432,88.4802838 L47.3377784,86.2766081 C47.4892108,86.3043649 47.6448595,86.3282568 47.8047243,86.3472297 C47.9642378,86.3669054 48.0893189,86.3820135 48.1785622,86.3932568 L49.0281297,86.4266351 L49.0453459,86.8742568 L49.0116162,86.8742568 C48.4624541,86.8742568 47.6276432,87.3025541 46.5068324,88.1591486 L44.8512649,89.4686351 L46.7629676,91.3845541 C47.740427,92.3686892 48.4350486,93.0028784 48.8475351,93.2867703 C49.2596703,93.5706622 49.6366703,93.7126081 49.9785351,93.7126081 L50.0122649,93.7115541 L50.0459946,94.1553108 C49.5916973,94.2066081 49.1908054,94.2652838 48.8433189,94.3302838 C48.4954811,94.3959865 48.195427,94.4655541 47.9435081,94.5396892 L43.4346162,90.0785811 L43.4346162,92.6915811 Z" id="Fill-32" fill="#E9CC95"></path>
                <path d="M56.6169676,92.4359378 L56.6169676,92.7222892 C56.6169676,93.2728568 56.6812649,93.6041811 56.8095081,93.7166135 C56.9381027,93.8290459 57.256427,93.8849108 57.7648324,93.8849108 L57.7648324,94.3845324 L57.1355622,94.3508027 L56.4816973,94.3339378 L55.9697784,94.3508027 C55.7347243,94.3508027 55.4940486,94.3620459 55.2474,94.3845324 L55.2389676,92.9721 L53.7112919,94.1045054 C53.5321027,94.2496135 53.3125081,94.3641541 53.0521568,94.4484784 C52.7921568,94.5321 52.5251297,94.5739108 52.2507243,94.5739108 C51.6520216,94.5739108 51.1791027,94.3834784 50.8323189,94.0019108 C50.4851838,93.6206946 50.3119676,93.0992892 50.3119676,92.4380459 C50.3119676,91.5125865 50.6893189,90.8105865 51.444373,90.3309919 C52.1990757,89.8517486 53.4639405,89.5193703 55.2389676,89.3345595 L55.2389676,89.208073 L55.2389676,89.0907216 C55.2389676,88.4512622 55.0548595,87.9505865 54.6866432,87.5890459 C54.318427,87.2275054 53.8142378,87.0465595 53.1740757,87.0465595 C52.6122649,87.0465595 52.2061027,87.1519649 51.9562919,87.3624243 C51.7061297,87.5721811 51.5304541,87.9607757 51.4292649,88.5268027 L50.9429946,88.4175324 L50.9848054,87.2651 C51.6302378,86.8462892 52.1565622,86.5585324 52.5630757,86.4025324 C52.9702919,86.2465324 53.3785622,86.1681811 53.7882378,86.1681811 C54.798373,86.1681811 55.5225081,86.3972622 55.9602919,86.8547216 C56.3980757,87.3125324 56.6169676,88.0833973 56.6169676,89.1669649 L56.6169676,92.4359378 Z M55.2389676,89.8679108 C53.9287784,90.0474514 53.0096432,90.3053432 52.4819135,90.6412351 C51.9541838,90.9774784 51.6899676,91.4676135 51.6899676,92.1116405 C51.6899676,92.5599649 51.8101297,92.9071 52.0501027,93.1537486 C52.2900757,93.4000459 52.6358054,93.5233703 53.0876432,93.5233703 C53.4656973,93.5233703 53.8258324,93.4169108 54.1673459,93.2039919 C54.5088595,92.991073 54.8661838,92.6492081 55.2389676,92.1791 L55.2389676,89.8679108 Z" id="Fill-34" fill="#E9CC95"></path>
                <path d="M59.9750432,92.6576054 L59.9750432,88.3366865 C59.9750432,87.905227 59.9276108,87.6332811 59.8323946,87.5215514 C59.7480703,87.4091189 59.5439351,87.3532541 59.2189351,87.3532541 L58.6648541,87.3869838 L58.6142595,87.3950649 L58.6142595,86.9084432 C58.8106649,86.8859568 59.0140973,86.8536324 59.2242054,86.8118216 C59.4343135,86.7696595 59.6542595,86.7152 59.8843946,86.6480919 C60.321827,86.5307405 60.775773,86.3877405 61.2469351,86.2201459 L61.4394757,86.2535243 L61.4394757,87.7590649 L62.4903676,86.8420378 C62.7426378,86.6234973 63.0043946,86.4650378 63.2763405,86.3670108 C63.5479351,86.2689838 63.8940162,86.2201459 64.3142324,86.2201459 C65.2386378,86.2201459 65.9213135,86.4826054 66.3612054,87.0075243 C66.8010973,87.5324432 67.0213946,88.3567135 67.0213946,89.4796324 L67.0213946,92.6049027 C67.0213946,93.1941189 67.0997459,93.5510919 67.2575027,93.6747676 C67.3421784,93.7418757 67.4700703,93.7935243 67.6415297,93.8304162 C67.8136919,93.8666054 68.0318811,93.8848757 68.2960973,93.8848757 L68.2960973,94.3844973 L67.3196919,94.3384703 L66.8151514,94.3156324 C66.7476919,94.3156324 66.6384216,94.3212541 66.4866378,94.3335514 C66.3355568,94.3451459 66.2146919,94.3507676 66.1250973,94.3507676 L65.7048811,94.3507676 C65.5759351,94.3676324 65.4835297,94.3788757 65.4276649,94.3844973 L65.4793135,93.5250919 L65.5049622,92.6737676 L65.5049622,89.4620649 C65.5049622,88.7316054 65.3436919,88.1838486 65.0211514,87.8187946 C64.6986108,87.4530378 64.2119892,87.2706865 63.5609351,87.2706865 C62.9386919,87.2706865 62.4380162,87.4446054 62.0592595,87.7927946 C61.6805027,88.1413351 61.4911243,88.6132 61.4911243,89.2087405 L61.4911243,92.8487405 C61.4911243,93.3427405 61.5599892,93.6392811 61.6966649,93.7373081 C61.8340432,93.8360378 62.2019081,93.8848757 62.8006108,93.8848757 L62.8006108,94.3844973 L61.2961243,94.3156324 L60.6489351,94.3156324 L59.6908,94.3156324 C59.5565838,94.3156324 59.4062054,94.3205514 59.2414216,94.3303892 C59.0759351,94.340227 58.8812865,94.3584973 58.6571243,94.3844973 L58.6486919,93.8848757 C59.2533676,93.8848757 59.6254486,93.8290108 59.7652865,93.7169297 C59.9054757,93.6048486 59.9750432,93.2517405 59.9750432,92.6576054" id="Fill-36" fill="#E9CC95"></path>
                <path d="M70.2634189,92.3196405 L70.2634189,87.6322622 L69.0523108,87.6322622 L69.0523108,87.3431 C69.2705,87.2823162 69.485527,87.2050189 69.6980946,87.1115595 C69.7760946,87.0785324 69.8586622,87.0398838 69.9454459,86.9959649 C70.0322297,86.9516946 70.1590676,86.8772081 70.3273649,86.7725054 L70.3273649,85.2160189 L70.2925811,84.2231 L70.9492568,83.9202351 L71.6730405,83.5499108 L71.9119595,83.7016946 C71.8778784,83.982073 71.8490676,84.2304784 71.8258784,84.4462081 C71.8030405,84.6622892 71.7914459,84.8766135 71.7914459,85.0902351 L71.7570135,86.8740459 L72.8686892,86.8399649 C73.0485811,86.8399649 73.2196892,86.8350459 73.3827162,86.8245054 C73.5453919,86.8143162 73.7674459,86.7971 74.0478243,86.7725054 L73.9642027,87.6322622 L71.7570135,87.6322622 L71.7570135,91.5354243 C71.7570135,92.3329919 71.8420405,92.8723162 72.0120946,93.1533973 C72.1821486,93.4344784 72.4846622,93.5750189 72.9199865,93.5750189 L73.1705,93.5750189 C73.254473,93.5588568 73.3532027,93.5451541 73.4673919,93.5346135 C73.5815811,93.5237216 73.7477703,93.4910459 73.9652568,93.4372892 L74.0653919,93.6835865 L73.6114459,94.0482892 L72.9804189,94.4642892 L72.4839595,94.5661811 L72.1224189,94.6086946 C71.4105811,94.6086946 70.9225541,94.448127 70.6590405,94.1273432 C70.395527,93.8062081 70.2634189,93.2039919 70.2634189,92.3196405" id="Fill-38" fill="#E9CC95"></path>
                <path d="M81.1436459,92.4359378 L81.1436459,92.7222892 C81.1436459,93.2728568 81.2079432,93.6041811 81.3361865,93.7166135 C81.4647811,93.8290459 81.7827541,93.8849108 82.2911595,93.8849108 L82.2911595,94.3845324 L81.6622405,94.3508027 L81.0080243,94.3339378 L80.4961054,94.3508027 C80.2610514,94.3508027 80.020727,94.3620459 79.7740784,94.3845324 L79.7652946,92.9721 L78.2376189,94.1045054 C78.0587811,94.2496135 77.8391865,94.3641541 77.5788351,94.4484784 C77.3184838,94.5321 77.0514568,94.5739108 76.7770514,94.5739108 C76.1787,94.5739108 75.7057811,94.3834784 75.3586459,94.0019108 C75.0118622,93.6206946 74.8382946,93.0992892 74.8382946,92.4380459 C74.8382946,91.5125865 75.2159973,90.8105865 75.9707,90.3309919 C76.7257541,89.8517486 77.9902676,89.5193703 79.7652946,89.3345595 L79.7652946,89.208073 L79.7652946,89.0907216 C79.7652946,88.4512622 79.5815378,87.9505865 79.2133216,87.5890459 C78.8451054,87.2275054 78.3409162,87.0465595 77.7004027,87.0465595 C77.1385919,87.0465595 76.7324297,87.1519649 76.4826189,87.3624243 C76.2324568,87.5721811 76.0571324,87.9607757 75.9559432,88.5268027 L75.4693216,88.4175324 L75.5114838,87.2651 C76.1569162,86.8462892 76.6828892,86.5585324 77.0897541,86.4025324 C77.4966189,86.2465324 77.9048892,86.1681811 78.3145649,86.1681811 C79.3250514,86.1681811 80.0491865,86.3972622 80.4869703,86.8547216 C80.9247541,87.3125324 81.1436459,88.0833973 81.1436459,89.1669649 L81.1436459,92.4359378 Z M79.7652946,89.8679108 C78.4554568,90.0474514 77.5363216,90.3053432 77.0082405,90.6412351 C76.4808622,90.9774784 76.2166459,91.4676135 76.2166459,92.1116405 C76.2166459,92.5599649 76.3364568,92.9071 76.5764297,93.1537486 C76.8167541,93.4000459 77.1624838,93.5233703 77.6139703,93.5233703 C77.9923757,93.5233703 78.3525108,93.4169108 78.693673,93.2039919 C79.0355378,92.991073 79.3928622,92.6492081 79.7652946,92.1791 L79.7652946,89.8679108 Z" id="Fill-40" fill="#E9CC95"></path>
                <path d="M83.4335784,94.2826054 C83.4564162,94.1979297 83.4810108,94.0735514 83.5070108,93.9098216 C83.5326595,93.7464432 83.5558486,93.5669027 83.5755243,93.3722541 C83.5959027,93.1776054 83.6117135,92.9787405 83.6229568,92.7756595 C83.6345514,92.572227 83.6405243,92.3522811 83.6405243,92.1147676 L83.6405243,91.8526595 L84.1053622,91.8530108 L84.0881459,91.9886324 L84.0881459,92.2173622 C84.0881459,92.8276595 84.2606595,93.2840649 84.6053351,93.5865784 C84.9500108,93.8890919 85.4780919,94.040173 86.1902811,94.040173 C86.7060649,94.040173 87.1304973,93.8912 87.4642811,93.5932541 C87.7977135,93.2956595 87.9646054,92.922173 87.9646054,92.4727946 C87.9646054,92.0961459 87.8367135,91.7971459 87.5823351,91.5750919 C87.3272541,91.3530378 86.8332541,91.1492541 86.0992811,90.9640919 C85.0515514,90.700227 84.3600919,90.4082541 84.0242,90.0878216 C83.6879568,89.7673892 83.5196595,89.3123892 83.5196595,88.7224703 C83.5196595,87.9642541 83.7873892,87.3543081 84.3228486,86.8936865 C84.8583081,86.4330649 85.5719027,86.2025784 86.4632811,86.2025784 C86.8726054,86.2025784 87.2453892,86.2334973 87.5819838,86.2946324 C87.918227,86.3557676 88.2460378,86.4534432 88.5654162,86.5873081 L88.4983081,87.1930378 L88.4983081,87.9076865 L88.4983081,88.3120919 L88.4983081,88.5808757 L88.0675514,88.5808757 L88.0847676,88.4800378 L88.0847676,88.3707676 C88.0847676,87.8711459 87.9097946,87.4797405 87.5594973,87.1962 C87.2095514,86.9126595 86.7180108,86.7710649 86.0848757,86.7710649 C85.642173,86.7710649 85.2876595,86.8905243 85.0216865,87.1294432 C84.7553622,87.3680108 84.6225514,87.684227 84.6225514,88.0773892 C84.6225514,88.4368216 84.7469297,88.7193081 84.9963892,88.9241459 C85.2458486,89.1293351 85.7546054,89.3299568 86.5223081,89.5270649 C87.6041189,89.7796865 88.3187676,90.0579568 88.6666054,90.361173 C89.0137405,90.6643892 89.1873081,91.0997135 89.1873081,91.6674973 C89.1873081,92.5325243 88.8833892,93.2387405 88.2744973,93.7868486 C87.6663081,94.3342541 86.8799838,94.6086595 85.915173,94.6086595 C85.4721189,94.6086595 85.0512,94.5805514 84.6534703,94.5246865 C84.4124432,94.4969297 84.2076054,94.4660108 84.0396595,94.4329838 C83.8713622,94.3996054 83.6693351,94.3493622 83.4335784,94.2826054" id="Fill-42" fill="#E9CC95"></path>
                <path d="M91.3369459,92.8343 L91.3369459,88.6644622 C91.3369459,88.0538135 91.2719459,87.692273 91.1426486,87.5801919 C91.0808108,87.524327 90.9694324,87.4793541 90.8088649,87.4456243 C90.6482973,87.4118946 90.4441622,87.3953811 90.1964595,87.3953811 L90.0105946,87.3953811 L90.0105946,86.9080568 C90.2906216,86.8687054 90.5418378,86.8265432 90.7635405,86.7819216 C90.9852432,86.7369486 91.2083514,86.6810838 91.4325135,86.6139757 C91.8534324,86.496273 92.2402703,86.3536243 92.5937297,86.185327 L92.8702432,86.2861649 L92.8702432,92.5739486 C92.8702432,93.1789757 92.9380541,93.5485973 93.0726216,93.6831649 C93.2082432,93.8177324 93.5318378,93.8848405 94.0444595,93.8848405 L94.1965946,93.8848405 L94.1965946,94.3844622 L93.4970541,94.3500297 L92.1155405,94.3500297 L91.4247838,94.3500297 L90.6918649,94.3500297 C90.3984865,94.3500297 90.1715135,94.3616243 90.0105946,94.3844622 L90.0105946,93.8848405 L90.1644865,93.8848405 C90.6605946,93.8848405 90.9803243,93.8191378 91.122973,93.6877324 C91.2656216,93.5559757 91.3369459,93.2713811 91.3369459,92.8343" id="Fill-44" fill="#E9CC95"></path>
                <path d="M90.9193649,76.1080784 L29.5140405,76.1080784 C29.2962027,76.1080784 29.119473,75.9317 29.119473,75.7138622 C29.119473,75.4960243 29.2962027,75.3196459 29.5140405,75.3196459 L90.9193649,75.3196459 C91.1372027,75.3196459 91.3135811,75.4960243 91.3135811,75.7138622 C91.3135811,75.9317 91.1372027,76.1080784 90.9193649,76.1080784 M90.9193649,78.1093757 L29.5140405,78.1093757 C29.2962027,78.1093757 29.119473,77.9329973 29.119473,77.7151595 C29.119473,77.4973216 29.2962027,77.3209432 29.5140405,77.3209432 L90.9193649,77.3209432 C91.1372027,77.3209432 91.3135811,77.4973216 91.3135811,77.7151595 C91.3135811,77.9329973 91.1372027,78.1093757 90.9193649,78.1093757" id="Fill-46" fill="#E9CC95"></path>
                <path d="M117.762046,108.291019 C116.891046,108.291019 116.18483,107.584803 116.18483,106.713803 L116.18483,39.1478838 C116.18483,38.2768838 116.891046,37.5706676 117.762046,37.5706676 C118.633046,37.5706676 119.339262,38.2768838 119.339262,39.1478838 L119.339262,106.713803 C119.339262,107.584803 118.633046,108.291019 117.762046,108.291019 M110.942316,129.909668 C110.070965,129.909668 109.3651,129.203803 109.3651,128.332451 L109.3651,39.1478838 C109.3651,38.2768838 110.070965,37.5706676 110.942316,37.5706676 C111.813316,37.5706676 112.519532,38.2768838 112.519532,39.1478838 L112.519532,128.332451 C112.519532,129.203803 111.813316,129.909668 110.942316,129.909668" id="Fill-48" fill="#E9CC95"></path>
                <path d="M54.5306432,122.167676 L54.5306432,121.947027 C54.6177784,121.947027 54.6978865,121.944216 54.7720216,121.939297 C54.8461568,121.934027 54.9301297,121.925946 55.0232378,121.915405 C55.1163459,121.904865 55.1746703,121.888 55.1982108,121.864811 C55.2361568,121.832838 55.2649676,121.746405 55.2839405,121.604811 C55.292373,121.541568 55.2997514,121.461108 55.306427,121.364135 C55.3127514,121.266811 55.3155622,121.16527 55.3155622,121.059865 L55.3155622,118.800324 L55.3029135,118.293676 L55.3029135,118.138027 C55.1592108,118.186865 55.0098865,118.244838 54.8556432,118.312297 C54.7245892,118.369216 54.6177784,118.417 54.5352108,118.455297 C54.4382378,118.501324 54.3651568,118.536459 54.3166703,118.559297 L54.3293189,118.236757 C54.500427,118.185811 54.7284541,118.106405 55.0137514,117.999243 C55.2755081,117.899811 55.6229946,117.760324 56.0558595,117.580784 L56.0558595,117.717108 C55.9985892,117.755054 55.9581838,117.798973 55.9349946,117.848865 C55.9114541,117.898405 55.8995081,117.982378 55.8995081,118.100784 L55.8995081,121.28473 C55.8995081,121.496243 55.9061838,121.636784 55.9188324,121.707757 C55.9314811,121.77873 55.9567784,121.828622 55.9947243,121.858135 C56.0351297,121.881676 56.0973189,121.902757 56.1819946,121.92173 C56.2266162,121.928054 56.2940757,121.934027 56.3850757,121.939297 C56.4760757,121.944216 56.5519676,121.947027 56.6134541,121.947027 L56.6134541,122.167676 L56.3186703,122.161 L55.4438054,122.142378 C55.4055081,122.142378 55.344373,122.143432 55.2596973,122.145541 C55.1750216,122.147297 55.1086162,122.148351 55.0601297,122.148351 C54.9923189,122.148351 54.9375081,122.149405 54.8953459,122.151514 C54.6880486,122.162054 54.5664811,122.167676 54.5306432,122.167676" id="Fill-50" fill="#A02E33"></path>
                <path d="M59.4716973,119.944289 L59.0915351,120.235911 C59.0005351,120.30337 58.9007514,120.353614 58.7921838,120.386289 C58.6832649,120.419316 58.5602919,120.435478 58.4229135,120.435478 C58.0680486,120.435478 57.7918865,120.332181 57.594427,120.124884 C57.3969676,119.917938 57.2978865,119.625262 57.2978865,119.246857 C57.2978865,118.784127 57.4363189,118.404668 57.7131838,118.10883 C57.9896973,117.813343 58.3421027,117.665424 58.7707514,117.665424 C59.2120486,117.665424 59.5430216,117.809127 59.7636703,118.09583 C59.9843189,118.383586 60.0942919,118.817505 60.0942919,119.397938 C60.0942919,120.107668 59.9038595,120.707073 59.5229946,121.196154 C59.1421297,121.684884 58.5820757,122.043614 57.8435351,122.271289 L57.5768595,122.173262 L57.5895081,122.122668 C58.1513189,121.9621 58.5919135,121.697181 58.9109405,121.327911 C59.2299676,120.958992 59.4165351,120.497668 59.4716973,119.944289 M59.5366973,119.190992 C59.5366973,118.783424 59.4594,118.462641 59.3055081,118.229343 C59.1512649,117.996046 58.9404541,117.879397 58.6727243,117.879397 C58.4215081,117.879397 58.2226432,117.981289 58.0761297,118.185073 C57.9292649,118.388857 57.8558324,118.668181 57.8558324,119.023046 C57.8558324,119.350505 57.9320757,119.60383 58.0838595,119.78337 C58.2356432,119.962911 58.4562919,120.052857 58.7454541,120.052857 C58.8445351,120.052857 58.9474811,120.03037 59.0539405,119.9861 C59.1604,119.94183 59.2612378,119.877532 59.3561027,119.792857 C59.4172378,119.738046 59.4639676,119.665316 59.4952378,119.574316 C59.5229946,119.477343 59.5366973,119.349451 59.5366973,119.190992" id="Fill-52" fill="#A02E33"></path>
                <path d="M60.7525486,121.090643 L60.8821973,121.090643 L60.8821973,121.141238 C60.8821973,121.411076 60.9503595,121.617319 61.0863324,121.759265 C61.2226568,121.901914 61.4204676,121.973238 61.6804676,121.973238 C61.9889541,121.973238 62.2398189,121.869589 62.4341162,121.662643 C62.6284135,121.455697 62.7257378,121.186562 62.7257378,120.855238 C62.7257378,120.511265 62.6375486,120.235103 62.4611703,120.027454 C62.2847919,119.819454 62.0486838,119.715454 61.7535486,119.715454 C61.5740081,119.715454 61.4166027,119.744968 61.2816838,119.804346 C61.1464135,119.863373 61.019927,119.959292 60.9015216,120.092805 L60.7936568,120.064346 L60.824927,119.057373 L60.8375757,117.904589 L61.0259,117.736643 L61.4566568,117.762292 L61.9411703,117.762292 L62.2658189,117.762292 L62.5613054,117.762292 L63.0936027,117.736643 L63.0556568,117.926022 L62.9920622,118.307589 L62.9730892,118.307589 L62.2693324,118.287914 L61.1088189,118.287914 L61.0582243,118.98113 L61.0385486,119.6234 C61.1738189,119.513427 61.318927,119.429805 61.4742243,119.372886 C61.6291703,119.315616 61.7978189,119.287157 61.9791162,119.287157 C62.3909,119.287157 62.7109811,119.399941 62.9404135,119.624454 C63.1691432,119.84967 63.2836838,120.162373 63.2836838,120.563968 C63.2836838,120.787778 63.2330892,121.005265 63.1315486,121.216427 C63.0300081,121.427589 62.8803324,121.620832 62.6818189,121.796157 C62.4980622,121.956724 62.293927,122.076184 62.0687108,122.154184 C61.8434946,122.232535 61.5824405,122.271184 61.2848459,122.271184 C61.1074135,122.271184 60.9457919,122.248697 60.7999811,122.203022 C60.6541703,122.157697 60.5371703,122.0934 60.4482784,122.011184 C60.5076568,121.8594 60.5614135,121.709724 60.6099,121.562157 C60.6351973,121.485914 60.6597919,121.408616 60.6843865,121.329562 C60.7086297,121.250508 60.7311162,121.171103 60.7525486,121.090643" id="Fill-54" fill="#A02E33"></path>
                <path d="M65.8498838,119.944289 L65.4697216,120.235911 C65.3787216,120.30337 65.2792892,120.353614 65.1703703,120.386289 C65.0614514,120.419316 64.9384784,120.435478 64.8014514,120.435478 C64.4462351,120.435478 64.170073,120.332181 63.9726135,120.124884 C63.7751541,119.917938 63.676073,119.625262 63.676073,119.246857 C63.676073,118.784127 63.8145054,118.404668 64.0913703,118.10883 C64.3678838,117.813343 64.7202892,117.665424 65.1489378,117.665424 C65.5902351,117.665424 65.9212081,117.809127 66.1418568,118.09583 C66.3625054,118.383586 66.4728297,118.817505 66.4728297,119.397938 C66.4728297,120.107668 66.2820459,120.707073 65.9011811,121.196154 C65.5206676,121.684884 64.9606135,122.043614 64.2217216,122.271289 L63.9550459,122.173262 L63.9680459,122.122668 C64.5298568,121.9621 64.9701,121.697181 65.289127,121.327911 C65.6081541,120.958992 65.795073,120.497668 65.8498838,119.944289 M65.9148838,119.190992 C65.9148838,118.783424 65.8379378,118.462641 65.6836946,118.229343 C65.5298027,117.996046 65.3186405,117.879397 65.0509108,117.879397 C64.8000459,117.879397 64.6008297,117.981289 64.4543162,118.185073 C64.3074514,118.388857 64.2343703,118.668181 64.2343703,119.023046 C64.2343703,119.350505 64.3102622,119.60383 64.4623973,119.78337 C64.6138297,119.962911 64.8344784,120.052857 65.1236405,120.052857 C65.2227216,120.052857 65.3256676,120.03037 65.4324784,119.9861 C65.5385865,119.94183 65.6394243,119.877532 65.7346405,119.792857 C65.7957757,119.738046 65.8421541,119.665316 65.8734243,119.574316 C65.9011811,119.477343 65.9148838,119.349451 65.9148838,119.190992" id="Fill-56" fill="#A02E33"></path>
                <polygon id="Fill-58" fill="#E9CC95" points="47.5971108 13.2491081 47.7629486 12.6753514 48.0152189 12.1149459 48.3497054 11.6125135 48.7653541 11.1360811 49.2438946 10.6944324 49.7677595 10.3128649 50.3545162 9.95483784 50.9623541 9.69202703 51.617273 9.42886486 52.2620027 9.26302703 52.930273 9.1657027 53.5985432 9.11827027 54.256273 9.14216216 54.8774622 9.25002703 55.4614081 9.42886486 56.0351649 9.70221622 55.6507865 9.25002703 55.3665432 8.67627027 55.127273 8.008 54.9589757 7.28210811 54.8774622 6.50597297 54.8535703 5.69540541 54.9245432 4.87183784 55.0429486 4.03527027 55.2590297 3.23559459 55.5457324 2.48581081 55.9034081 1.79118919 56.3693 1.18335135 56.8928135 0.683378378 57.5136514 0.312702703 58.2058135 0.0628918919 59.066273 0 59.8631378 0.0628918919 60.5553 0.312702703 61.1761378 0.683378378 61.7024622 1.18335135 62.1683541 1.79118919 62.5126784 2.48581081 62.8130838 3.23559459 63.0154622 4.03527027 63.1468676 4.87183784 63.2048405 5.69540541 63.1943 6.50597297 63.1099757 7.28210811 62.9314892 8.008 62.7048676 8.67627027 62.4181649 9.25002703 62.0369486 9.70221622 62.5970027 9.42886486 63.1943 9.25002703 63.8151378 9.14216216 64.4704081 9.11827027 65.1386784 9.1657027 65.8069486 9.26302703 66.4516784 9.42886486 67.1065973 9.69202703 67.7042459 9.95483784 68.2881919 10.3128649 68.8145162 10.6944324 69.3035973 11.1360811 69.7224081 11.6125135 70.0561919 12.1149459 70.3063541 12.6753514 70.4718405 13.2491081 69.4827865 13.1408919 68.5274622 13.0938108 67.5858405 13.1408919 66.6674081 13.2592973 65.7595162 13.4514865 64.8990568 13.7248378 64.0653 14.0593243 63.2888135 14.4774324 62.5601108 14.9672162 61.8683 15.5037297 61.2235703 16.1351081 60.6526243 16.8033784 60.1263 17.5320811 59.6976514 18.3556486 59.3160838 19.2132973 59.0666243 19.9514865 59.066273 20.1313784 59.0357054 20.0421351 59.0054892 20.1313784 59.0061919 19.9539459 58.7556784 19.2132973 58.3716514 18.3556486 57.9321108 17.5320811 57.4057865 16.8033784 56.8453811 16.1351081 56.2006514 15.5037297 55.5088405 14.9672162 54.7695973 14.4774324 54.0036514 14.0593243 53.1565432 13.7248378 52.2988946 13.4514865 51.4040027 13.2592973 50.4859216 13.1408919 49.5414892 13.0938108 48.5759757 13.1408919"></polygon>
            </g>
        </g>
    </g>
</svg>